<svg xmlns="http://www.w3.org/2000/svg" xmlns:xlink="http://www.w3.org/1999/xlink" width="360" height="346.675" viewBox="0 0 360 346.675"><defs><linearGradient id="a" x1="0.5" x2="0.5" y2="0.682" gradientUnits="objectBoundingBox"><stop offset="0" stop-color="#ffe190"/><stop offset="1" stop-color="#ffe190" stop-opacity="0"/></linearGradient></defs><g transform="translate(-862.28 -382.965)"><path d="M131.861,297c115.753,8.489,8.57-122.082,96.965-123.536C318.888,134.91,283.544,26.492,188.67,4.843,7.972-41.353-99.136,257.156,131.861,297Z" transform="matrix(0.174, -0.985, 0.985, 0.174, 880.618, 677.998)" fill="#effaf3"/><g transform="translate(915.239 426.355)"><path d="M209.93,287.025l26.284,1.686L205.9,342.531l22.745,62.789-29.179,18.59.284-9.3s-19.8-21.464-34.856-69.837S209.93,287.025,209.93,287.025Z" transform="translate(-37.403 -195.316)" fill="#e2e2e2"/><path d="M252.265,433.491l17.94-3.2,4.527,1.953-4.313,7.658,4.686,12.937h0a64.59,64.59,0,0,0-29.939,28.957q-1.333-2.669-2.695-5.586C245.369,460.435,252.265,433.491,252.265,433.491Z" transform="translate(-101.921 -292.684)"/><path d="M319.67,152.72h83.644l-5.737-50.179H313.933Z" transform="translate(-253.024 -69.932)" fill="#fff"/><path d="M309.3,139.359h83.644L387.209,89.18H303.565Z" transform="translate(-239.334 -60.851)" fill="none" stroke="#000" stroke-linecap="round" stroke-linejoin="round" stroke-width="1"/><path d="M412.4,264.839l-2.175-19.024H423.6l2.175,19.024Z" transform="translate(-306.328 -167.308)"/><path d="M84.529,412.18S90.393,298.64,168.245,299l36.952,9.082s9.187,50.384-67.695,47.5l-27.869,72.076L79.361,417.093Z" transform="translate(19.898 -203.457)" fill="#edeeef"/><path d="M195.775,412.18S201.639,298.64,279.491,299" transform="translate(-91.348 -203.457)" fill="none" stroke="#000" stroke-linecap="round" stroke-linejoin="round" stroke-width="1"/><path d="M174.925,327.356s9.187,50.384-67.695,47.5L79.361,446.934" transform="translate(50.17 -222.727)" fill="none" stroke="#000" stroke-linecap="round" stroke-linejoin="round" stroke-width="1"/><path d="M135.952,18.647V32.364l16.993,4.177V13.392L135.952,9.215Z" transform="translate(54.362 -6.504)" fill="#efeeed"/><ellipse cx="0.454" cy="0.454" rx="0.454" ry="0.454" transform="translate(199.459 15.98)"/><ellipse cx="0.454" cy="0.454" rx="0.454" ry="0.454" transform="translate(192.481 15.98)"/><path d="M177.933,45.658v-7h-3.508" transform="translate(17.05 -26.513)" fill="none" stroke="#000" stroke-linecap="round" stroke-linejoin="round" stroke-width="1"/><line x1="3.508" transform="translate(197.262 12.143)" stroke-width="1" stroke="#000" stroke-linecap="round" stroke-linejoin="round" fill="none"/><path d="M132.032,47.328V49.76a2.375,2.375,0,0,0,2.375-2.375q0-.109-.01-.216A1.188,1.188,0,0,0,132.032,47.328Z" transform="translate(74.156 -31.598)" fill="#edeeef"/><path d="M132.032,52.407a2.375,2.375,0,0,0,2.375-2.375" transform="translate(74.156 -34.245)" fill="none" stroke="#000" stroke-linecap="round" stroke-linejoin="round" stroke-width="1"/><path d="M162.133,60.8a2.4,2.4,0,0,0,2.4-2.4" transform="translate(35.439 -37.821)" fill="none" stroke="#000" stroke-linecap="round" stroke-linejoin="round" stroke-width="1"/><line x2="16.993" y2="4.177" transform="translate(190.314 25.861)" stroke-width="1" stroke="#000" stroke-linecap="round" stroke-linejoin="round" fill="none"/><line x2="1.534" y2="0.377" transform="translate(194.982 19.151)" stroke-width="1" stroke="#000" stroke-linecap="round" stroke-linejoin="round" fill="none"/><path d="M80.428,122.665v37.108L133,172.693V131.365a31.833,31.833,0,0,0-24.235-30.913h0a22.873,22.873,0,0,0-28.333,22.212Z" transform="translate(92.099 -68.063)" fill="#60dda3"/><path d="M146.285,15.291a13.822,13.822,0,0,1-2.717-5.478s-10.082,3.324-14.216-2.242a5.5,5.5,0,0,1-.123-6.439.758.758,0,0,1,1.3-.025c.409.716,1.373,1.3,3.629.458C137.958.138,145.87.6,147.131,5.408c0,0,5.606,1.562.791,9.951" transform="translate(59.904 -0.751)" fill="none" stroke="#000" stroke-linecap="round" stroke-linejoin="round" stroke-width="1"/><path d="M64.82,119.183s21.668,17.795,27.114,46.556-37.736,21.85-58.3,13.384" transform="translate(147.682 -81.243)" fill="none" stroke="#000" stroke-linecap="round" stroke-linejoin="round" stroke-width="1"/><path d="M158.817,255.52s-48.854-8.636-52.218,12.759" transform="translate(57.893 -172.733)" fill="none" stroke="#000" stroke-linecap="round" stroke-linejoin="round" stroke-width="1"/><path d="M257.585,119.183S242.253,135,238.21,164.03c0,0-15.551.535-16.173,12.759" transform="translate(-77.855 -81.243)" fill="none" stroke="#000" stroke-linecap="round" stroke-linejoin="round" stroke-width="1"/><path d="M49.113,133.477s6.968-14.468,12.734-1.974,30.963,94.825,4.374,108.6S.75,246.312.75,246.312" transform="translate(172.434 -86.161)" fill="none" stroke="#000" stroke-linecap="round" stroke-linejoin="round" stroke-width="1"/><path d="M51.752,507.142v92.719H83.465" transform="translate(150.816 -344.917)" fill="none" stroke="#000" stroke-linecap="round" stroke-linejoin="round" stroke-width="1"/><path d="M117.75,0H-59.733" transform="translate(59.733 97.531)" fill="none" stroke="#000" stroke-linecap="round" stroke-width="1"/></g><g transform="translate(862.014 382.965)"><path d="M74,0l74,71H0Z" transform="translate(0.266 40.035)" fill="url(#a)"/><g transform="translate(50.8)"><ellipse cx="4.203" cy="4.203" rx="4.203" ry="4.203" transform="translate(18.388 59.416)" fill="#ffde53"/><g transform="translate(22.591)"><line y2="39.955" fill="none" stroke="#000" stroke-linejoin="round" stroke-width="0.75"/></g><path d="M23.341,203.592.75,226.183H45.933Z" transform="translate(-0.75 -163.637)" fill="#fff"/><path d="M.75,226.183H45.933L26.182,206.433l-2.841-2.841" transform="translate(-0.75 -163.637)" fill="none" stroke="#000" stroke-linecap="round" stroke-linejoin="round" stroke-width="0.75"/></g></g><g transform="translate(912.898 596.815)"><path d="M274.991,8.444h0A17.926,17.926,0,0,0,263.953.811L263.681.75s1.629,11.421,13.542,12.888l.424,30.914V17.311a16.127,16.127,0,0,0-2.656-8.867Z" transform="translate(-251.976 -0.75)" fill="#edeeef"/><path d="M391.947,30.749l-.271.061a17.926,17.926,0,0,0-11.038,7.633h0a16.127,16.127,0,0,0-2.656,8.867V74.55l.678-31.866C390.571,41.218,391.947,30.749,391.947,30.749Z" transform="translate(-352.31 -27.083)" fill="#edeeef"/><rect width="18.33" height="44.236" transform="translate(16.506 40.15)" fill="#60dda3"/><path d="M277.584,44.551V17.311a16.127,16.127,0,0,0-2.656-8.867h0A17.926,17.926,0,0,0,263.889.811L263.618.75s-.733,11,11.179,12.462" transform="translate(-251.913 -0.75)" fill="none" stroke="#000" stroke-linecap="round" stroke-linejoin="round" stroke-width="0.75"/><path d="M377.981,74.55V47.309a16.127,16.127,0,0,1,2.656-8.867h0a17.926,17.926,0,0,1,11.038-7.633l.271-.061s.733,11-11.179,12.462" transform="translate(-352.31 -27.083)" fill="none" stroke="#000" stroke-linecap="round" stroke-linejoin="round" stroke-width="0.75"/><path d="M319.667,160.941V145.118a9.367,9.367,0,0,0-1.543-5.15h0a10.412,10.412,0,0,0-6.411-4.433l-.158-.035a6.9,6.9,0,0,0,6.493,7.239" transform="translate(-293.996 -119.035)" fill="none" stroke="#000" stroke-linecap="round" stroke-linejoin="round" stroke-width="0.75"/><path d="M4.742,0H55.95" transform="translate(-4.742 84.279)" fill="none" stroke="#000" stroke-linecap="round" stroke-width="0.75"/></g></g></svg>