<svg xmlns="http://www.w3.org/2000/svg" width="65.492" height="60.346" viewBox="0 0 65.492 60.346"><g transform="translate(1.236 1.25)"><path d="M-424.383-672.9c65.343-16.928,39.376-49.76,18.346-55.853S-451.263-700.664-424.383-672.9Z" transform="translate(447.014 732)" fill="#ecf9f1"/><path d="M5.5,21.863V9.5L11.68,21.863V9.5" transform="translate(4.363 8.606)" fill="none" stroke="#222" stroke-linecap="round" stroke-linejoin="round" stroke-width="2.5"/><path d="M16.7,21.863H12.58a2.06,2.06,0,0,1-2.06-2.06V11.56A2.06,2.06,0,0,1,12.58,9.5H16.7" transform="translate(9.687 8.606)" fill="none" stroke="#222" stroke-linecap="round" stroke-linejoin="round" stroke-width="2.5"/><line x2="4.121" transform="translate(20.207 24.287)" stroke-width="2.5" stroke="#222" stroke-linecap="round" stroke-linejoin="round" fill="none"/><path d="M23.742,9.5v3.635a19.531,19.531,0,0,1-2.058,8.724l-2.062-8.238-2.06,8.242a19.509,19.509,0,0,1-2.06-8.728V9.5" transform="translate(14.968 8.606)" fill="none" stroke="#222" stroke-linecap="round" stroke-linejoin="round" stroke-width="2.5"/><circle cx="24" cy="24" r="24" transform="translate(0.014)" fill="none" stroke="#222" stroke-linecap="round" stroke-linejoin="round" stroke-width="2.5"/></g></svg>