<svg xmlns="http://www.w3.org/2000/svg" width="71.621" height="68.429" viewBox="0 0 71.621 68.429"><g transform="translate(1.768 1.25)"><path d="M-415.186-674.9c23.517,1.725,1.741-24.806,19.7-25.1,18.3-7.834,11.117-29.864-8.158-34.263C-440.355-743.652-462.116-683-415.186-674.9Z" transform="translate(454.756 742)" fill="#ffeee6"/><path d="M3.5,13.5V32.647a2.127,2.127,0,0,0,2.127,2.127H15.2a1.064,1.064,0,0,0,1.064-1.064V25.2a5.318,5.318,0,1,1,10.637,0v8.51a1.064,1.064,0,0,0,1.064,1.064h9.573a2.127,2.127,0,0,0,2.127-2.127V14.564" transform="translate(2.882 12.029)" fill="none" stroke="#222" stroke-linecap="round" stroke-linejoin="round" stroke-width="2.5"/><path d="M.5,25.965,24.965,1.5,49.43,25.965" transform="translate(-0.5 -1.5)" fill="none" stroke="#222" stroke-linecap="round" stroke-linejoin="round" stroke-width="2.5"/></g></svg>