<svg xmlns="http://www.w3.org/2000/svg" width="64.605" height="65.106" viewBox="0 0 64.605 65.106"><g transform="translate(-29.929 -29.75)"><path d="M-427.011-657.333c23.937,5.643,63.258-40.563,26.579-54.4S-445.712-662.539-427.011-657.333Z" transform="translate(480 751.714)" fill="#ebf8ff"/><g transform="translate(31.179 31)"><path d="M23.578,46.317H5.673A4.173,4.173,0,0,1,1.5,42.144V2.5" transform="translate(-1.5 1.673)" fill="none" stroke="#222" stroke-linecap="round" stroke-linejoin="round" stroke-width="2.5"/><path d="M41.144.5H5.673a4.173,4.173,0,1,0,0,8.346H39.058a2.087,2.087,0,0,1,2.087,2.087V24.549" transform="translate(-1.5 -0.5)" fill="none" stroke="#222" stroke-linecap="round" stroke-linejoin="round" stroke-width="2.5"/><line x2="32" transform="translate(4.821 4.613)" stroke-width="2.5" stroke="#222" stroke-linecap="round" stroke-linejoin="round" fill="none"/><circle cx="9.45" cy="9.45" r="9.45" transform="translate(20.865 25.038)" fill="none" stroke="#222" stroke-linecap="round" stroke-linejoin="round" stroke-width="2.5"/><line x1="6.777" y1="6.777" transform="translate(37.04 41.213)" stroke-width="2.5" stroke="#222" stroke-linecap="round" stroke-linejoin="round" fill="none"/></g></g></svg>