<svg xmlns="http://www.w3.org/2000/svg" width="69.819" height="69.789" viewBox="0 0 69.819 69.789"><g transform="translate(-29.922 -29.75)"><path d="M-435.024-716.258c-15.224,36.614-14.057,60.881,27.626,42.125s32.089-33.453,28.86-44.612S-419.8-752.872-435.024-716.258Z" transform="translate(475 767.177)" fill="#f8f0ff"/><g transform="translate(31.172 31)"><path d="M19.128,40.313,15.11,44.331V35.982H2.587A2.087,2.087,0,0,1,.5,33.895V2.587A2.087,2.087,0,0,1,2.587.5H40.157a2.087,2.087,0,0,1,2.087,2.087V17.2" transform="translate(-0.5 -0.5)" fill="none" stroke="#222" stroke-linecap="round" stroke-linejoin="round" stroke-width="2.5"/><path d="M11.5,27.2a2.087,2.087,0,0,0,2.087,2.087h8.349l8.349,8.349V29.285h4.174A2.087,2.087,0,0,0,36.546,27.2V12.587A2.087,2.087,0,0,0,34.459,10.5H13.587A2.087,2.087,0,0,0,11.5,12.587Z" transform="translate(11.459 10.372)" fill="none" stroke="#222" stroke-linecap="round" stroke-linejoin="round" stroke-width="2.5"/><path d="M7.5,8.174a4.174,4.174,0,1,1,5.567,3.936,2.087,2.087,0,0,0-1.392,1.968v1.4" transform="translate(7.11 3.306)" fill="none" stroke="#222" stroke-linecap="round" stroke-linejoin="round" stroke-width="2.5"/><path d="M9.772,11.5a.522.522,0,1,1-.522.522.522.522,0,0,1,.522-.522" transform="translate(9.013 11.459)" fill="none" stroke="#222" stroke-linecap="round" stroke-linejoin="round" stroke-width="2.5"/><path d="M17.772,16.5a.522.522,0,1,1-.522.522.522.522,0,0,1,.522-.522" transform="translate(17.71 16.895)" fill="none" stroke="#222" stroke-linecap="round" stroke-linejoin="round" stroke-width="2.5"/><line y1="4" transform="translate(35.828 25.177)" stroke-width="2.5" stroke="#222" stroke-linecap="round" stroke-linejoin="round" fill="none"/></g></g></svg>