<svg xmlns="http://www.w3.org/2000/svg" width="74.91" height="55.252" viewBox="0 0 74.91 55.252"><g transform="translate(-30.122 -29.75)"><path d="M119.379,81.169c13-22.151-3.5-18.451-17.784-22.535C90.641,55.5,99.728,32.843,74.767,43.268,50.9,59.016,79.887,88.48,101.595,87.529,106.306,87.323,105.8,87.1,119.379,81.169Z" transform="matrix(-0.996, -0.087, 0.087, -0.996, 162.958, 131.128)" fill="#f2f8e7"/><g transform="translate(31.372 31)"><circle cx="12.649" cy="12.649" r="12.649" transform="translate(22.99 23.23)" fill="#222"/><path d="M26.24,15.808l-6.124,8.165a1.581,1.581,0,0,1-2.384.171l-3.162-3.162" transform="translate(15.037 16.395)" fill="none" stroke="#fff" stroke-linecap="round" stroke-linejoin="round" stroke-width="2.5"/><path d="M19.5,30.048H3.688A3.162,3.162,0,0,1,.526,26.886V3.7A3.162,3.162,0,0,1,3.688.533H41.636A3.162,3.162,0,0,1,44.8,3.7V19.507" transform="translate(-0.526 -0.533)" fill="rgba(0,0,0,0)" stroke="#222" stroke-linecap="round" stroke-linejoin="round" stroke-width="2.5"/><path d="M43.407.979,22.183,17.959.958.979" transform="translate(-0.047 -0.039)" fill="rgba(0,0,0,0)" stroke="#222" stroke-linecap="round" stroke-linejoin="round" stroke-width="2.5"/></g></g></svg>