<svg xmlns="http://www.w3.org/2000/svg" width="63.914" height="61.946" viewBox="0 0 63.914 61.946"><g transform="translate(0.25 1.25)"><path d="M-425.8-672.9c23.223,6.741,24.015-9.094,26.323-23.764,2.348-14.912,5.284-28.964-6.42-32.089C-453.106-737.1-473.49-686.746-425.8-672.9Z" transform="translate(461 732)" fill="#fff6e8"/><g transform="translate(1)"><path d="M8.25,13.958a7.962,7.962,0,1,1,9.681,7.762,2.137,2.137,0,0,0-1.723,2.069v2.362" transform="translate(8.196 5.652)" fill="none" stroke="#222" stroke-linecap="round" stroke-linejoin="round" stroke-width="2.5"/><path d="M12.281,17.992a.531.531,0,1,1-.531.531.531.531,0,0,1,.531-.531" transform="translate(12.123 19.125)" fill="none" stroke="#222" stroke-linecap="round" stroke-linejoin="round" stroke-width="2.5"/><circle cx="24.5" cy="24.5" r="24.5" fill="none" stroke="#222" stroke-linecap="round" stroke-linejoin="round" stroke-width="2.5"/></g></g></svg>