<svg xmlns="http://www.w3.org/2000/svg" width="15.01" height="15.998" viewBox="0 0 15.01 15.998"><defs><style>.a{fill:#fff;}</style></defs><g transform="translate(0.332 -0.5)"><path class="a" d="M9.506,7.191a.9.9,0,0,1-.17-.523V1.93A.225.225,0,0,1,9.561,1.7h.213a.6.6,0,0,0,0-1.2H8.806a.68.68,0,0,0-.681.681V6.662a1.116,1.116,0,0,0,.2.633l4.769,6.8a.784.784,0,0,1-.645,1.235H1.847a.785.785,0,0,1-.639-1.241L6.014,7.331a1.1,1.1,0,0,0,.207-.639V1.187A.68.68,0,0,0,5.54.506H4.591a.6.6,0,0,0,0,1.2h.225a.225.225,0,0,1,.225.225v4.69a1.03,1.03,0,0,1-.195.6L-.02,13.913A1.63,1.63,0,0,0,1.3,16.5l11.746-.006a1.631,1.631,0,0,0,1.32-2.585Z" transform="translate(0)"/><path class="a" d="M46.7,165.338l-1.715,2.409c-.456.639-.182,1.162.6,1.162h7.9c.779,0,1.052-.523.6-1.162l-1.721-2.458c-.45-.45-1.2.876-2.847-.049.006.012-1.782-.937-2.823.1Z" transform="translate(-42.355 -154.357)"/><circle class="a" cx="0.596" cy="0.596" r="0.596" transform="translate(7.784 9.302)"/><circle class="a" cx="0.474" cy="0.474" r="0.474" transform="translate(5.996 8.913)"/><circle class="a" cx="0.255" cy="0.255" r="0.255" transform="translate(7.267 8.134)"/></g></svg>