<?xml version="1.0" encoding="utf-8"?>
<!-- Generator: Adobe Illustrator 24.0.3, SVG Export Plug-In . SVG Version: 6.00 Build 0)  -->
<svg version="1.1" id="Layer_1" xmlns="http://www.w3.org/2000/svg" xmlns:xlink="http://www.w3.org/1999/xlink" x="0px" y="0px"
	 width="246px" height="264px" viewBox="0 0 246 264" style="enable-background:new 0 0 246 264;" xml:space="preserve">
<style type="text/css">
	.st0{fill:#30AADF;}
</style>
<path d="M161.4,110.5c-1.8-2.5-2.8-5.5-2.8-8.6V24c0-2.1,1.7-3.7,3.7-3.7h3.5c5.4,0,9.9-4.4,9.9-9.9s-4.5-9.9-9.9-9.9h-15.9
	c-6.2,0-11.2,5-11.2,11.2v90.1c0,3.7,1.2,7.4,3.3,10.4L220.4,224c6,8.6-0.1,20.3-10.6,20.3H35.5c-10.5,0-16.6-11.9-10.5-20.4
	l79-111.1c2.2-3.1,3.4-6.7,3.4-10.5V11.8c0-6.2-5-11.2-11.2-11.2H80.6c-5.4,0-9.9,4.4-9.9,9.9c0,5.4,4.4,9.9,9.9,9.9h3.7
	c2.1,0,3.7,1.7,3.7,3.7v77.1c0,3.5-1.1,7-3.2,9.9L4.8,221c-12.8,17.7-0.2,42.5,21.7,42.5l193.1-0.1c21.8,0,34.5-24.8,21.7-42.5
	L161.4,110.5z"/>
<path class="st0" d="M76.6,172.8l-28.2,39.6c-7.5,10.5-3,19.1,9.9,19.1h129.9c12.8,0,17.3-8.6,9.9-19.1L169.8,172
	c-7.4-7.4-19.7,14.4-46.8-0.8C123.1,171.4,93.7,155.8,76.6,172.8L76.6,172.8z"/>
<circle class="st0" cx="142.9" cy="155" r="9.8"/>
<circle class="st0" cx="111.5" cy="146.6" r="7.8"/>
<circle class="st0" cx="128.8" cy="130.2" r="4.2"/>
</svg>
