<svg enable-background="new 0 0 24 24" viewBox="0 0 24 24" xmlns="http://www.w3.org/2000/svg"><g stroke-linecap="round" stroke-linejoin="round"><path d="m9.1 8.3 2.5-3.7c.2-.2.5-.2.7 0l3.8 3.7" fill="#d4e6f1" stroke="#1a5276"/><path d="m8.3 8.3-2.8-6.3c-.1-.2-.4-.3-.6-.2l-1.6.7c-.3.2-.4.5-.3.7l2.3 5.1" fill="#fcf3cf" stroke="#f7dc6f"/><g fill="none" stroke="#000"><circle cx="5.4" cy="20.8" r="1.5"/><circle cx="16.4" cy="20.8" r="1.5"/><path d="m23.4 2.3h-2.6c-.2 0-.4.2-.5.4l-3.9 16.6h-11"/><path d="m16.9 17.3h-12.6c-.2 0-.4-.1-.5-.3l-2.7-8c0-.3.1-.6.4-.7h.2 17.3"/></g></g></svg>