<svg enable-background="new 0 0 24 24" viewBox="0 0 24 24" xmlns="http://www.w3.org/2000/svg"><g stroke-linecap="round" stroke-linejoin="round"><path d="m7.5 11.5h-2l-3 3v-3h-1c-.6 0-1-.4-1-1v-9c0-.6.4-1 1-1h12c.6 0 1 .4 1 1v9" fill="#eaf2f8" stroke="#1a5276"/><path d="m16.5 10.5h6c.6 0 1 .4 1 1v8c0 .6-.4 1-1 1h-1v3l-3-3h-8c-.6 0-1-.4-1-1v-8c0-.6.4-1 1-1h1" fill="#f7f9f9" stroke="#444"/><path d="m5.5 8.5v-4.5c0-.8.7-1.5 1.5-1.5s1.5.7 1.5 1.5v4.5" fill="none" stroke="#1a5276"/><path d="m5.5 5.5h3" fill="none" stroke="#1a5276"/><g fill="#f7f9f9" stroke="#444"><path d="m17.5 13.5v-1"/><path d="m14.5 13.5h6"/><path d="m16 13.5c.1 2.2 1.8 4.1 4 4.5"/><path d="m19 13.5c-.1 2.2-1.8 4.1-4 4.5"/></g></g></svg>