<svg enable-background="new 0 0 24 24" viewBox="0 0 24 24" xmlns="http://www.w3.org/2000/svg"><g stroke="#000" stroke-linecap="round" stroke-linejoin="round"><path d="m22.4 4.2.6-.3c.2-.1.3-.4.2-.7l-.5-.9c-.2-.2-.5-.3-.7-.2l-.6.3c-.4-.3-.9-.6-1.4-.7v-.7c0-.3-.2-.5-.5-.5h-1c-.3 0-.5.2-.5.5v.7c-.5.2-1 .4-1.4.8l-.6-.4c-.2-.1-.5-.1-.7.2l-.5.9c-.1.2-.1.5.2.7l.6.3c-.1.5-.1 1.1 0 1.6l-.6.3c-.2.1-.3.4-.2.7l.5.9c.2.2.5.3.7.2l.6-.3c.4.3.9.6 1.4.7v.7c0 .3.2.5.5.5h1c.3 0 .5-.2.5-.5v-.7c.5-.2 1-.4 1.4-.8l.6.4c.2.1.5.1.7-.2l.5-.9c.1-.2.1-.5-.2-.7l-.6-.3c.1-.5.1-1.1 0-1.6z" fill="#cacfd2"/><path d="m14.9 14.1.7-.4c.5-.3.6-.9.4-1.4l-1-1.7c-.3-.5-.9-.6-1.4-.4l-.7.4c-.7-.6-1.5-1.1-2.4-1.4v-.7c0-.6-.4-1-1-1h-2c-.6 0-1 .4-1 1v.8c-.9.3-1.7.7-2.4 1.4l-.7-.4c-.4-.3-1.1-.1-1.3.3l-1 1.7c-.3.5-.1 1.1.4 1.4l.7.4c-.2.9-.2 1.9-.1 2.8l-.7.4c-.5.3-.6.9-.4 1.4l1 1.7c.3.4 1 .6 1.4.3l.7-.4c.7.6 1.5 1.1 2.4 1.4v.8c0 .6.4 1 1 1h2c.6 0 1-.4 1-1v-.8c.9-.3 1.7-.7 2.4-1.4l.7.4c.5.3 1.1.1 1.4-.4l1-1.7c.3-.5.1-1.1-.4-1.4l-.7-.4c.1-.8.1-1.8 0-2.7z" fill="#e5e7e9"/><g fill="#fff"><circle cx="8.5" cy="15.5" r="3"/><circle cx="19" cy="5" r="1.5"/></g></g></svg>