<svg enable-background="new 0 0 24 24" viewBox="0 0 24 24" xmlns="http://www.w3.org/2000/svg"><circle cx="12" cy="9" fill="#d1f4a2" r="4.5"/><g fill="none" stroke="#000" stroke-linecap="round" stroke-linejoin="round"><path d="m9.1 23.5c.8-1.2 1.3-2.6 1.4-4"/><path d="m14.9 23.5c-.8-1.2-1.3-2.6-1.4-4"/><path d="m7.5 23.5h9"/><path d="m.5 16.5h23"/><path d="m1.5.5h21c.6 0 1 .4 1 1v17c0 .6-.4 1-1 1h-21c-.6 0-1-.4-1-1v-17c0-.6.4-1 1-1z"/><path d="m17 5.5-5 5-2-2"/><path d="m16.5 9c0 2.5-2 4.5-4.5 4.5s-4.5-2-4.5-4.5 2-4.5 4.5-4.5c.7 0 1.4.2 2 .5"/></g></svg>