<svg enable-background="new 0 0 24 24" viewBox="0 0 24 24" xmlns="http://www.w3.org/2000/svg"><g fill="#eaecee" stroke="#000" stroke-linecap="round" stroke-linejoin="round"><path d="m14.5 5.5c0 .6-.4 1-1 1h-4c-.6 0-1-.4-1-1v-4c0-.6.4-1 1-1h4c.6 0 1 .4 1 1z"/><path d="m6.5 5.5c0 .6-.4 1-1 1h-4c-.6 0-1-.4-1-1v-4c0-.6.4-1 1-1h4c.6 0 1 .4 1 1z"/><path d="m22.5 5.5c0 .6-.4 1-1 1h-4c-.6 0-1-.4-1-1v-4c0-.6.4-1 1-1h4c.6 0 1 .4 1 1z"/><path d="m14.5 13.5c0 .6-.4 1-1 1h-4c-.6 0-1-.4-1-1v-4c0-.6.4-1 1-1h4c.6 0 1 .4 1 1z"/><path d="m6.5 13.5c0 .6-.4 1-1 1h-4c-.6 0-1-.4-1-1v-4c0-.6.4-1 1-1h4c.6 0 1 .4 1 1z"/><path d="m22.5 13.5c0 .6-.4 1-1 1h-4c-.6 0-1-.4-1-1v-4c0-.6.4-1 1-1h4c.6 0 1 .4 1 1z"/><path d="m14.5 21.5c0 .6-.4 1-1 1h-4c-.6 0-1-.4-1-1v-4c0-.6.4-1 1-1h4c.6 0 1 .4 1 1z"/><path d="m6.5 21.5c0 .6-.4 1-1 1h-4c-.6 0-1-.4-1-1v-4c0-.6.4-1 1-1h4c.6 0 1 .4 1 1z"/><path d="m22.5 21.5c0 .6-.4 1-1 1h-4c-.6 0-1-.4-1-1v-4c0-.6.4-1 1-1h4c.6 0 1 .4 1 1z"/></g></svg>