<svg enable-background="new 0 0 24 24" viewBox="0 0 24 24" xmlns="http://www.w3.org/2000/svg"><path d="m10.5 9.6c0 .6-.4 1-1 1h-8c-.6 0-1-.4-1-1v-8c0-.6.4-1 1-1h8c.6 0 1 .4 1 1z" fill="#d4e6f1"/><path d="m9.8 10.6-2.1-5.1-2.4 3.5-1.6-1.8-2.2 3.4z" fill="#82e0aa"/><path d="m6.4 8.1-.1-.6 1.4-2 1 2.4-.4.1-.6-.8-.1 1.2-.3-1.1z" fill="#fff"/><g stroke="#000" stroke-linecap="round" stroke-linejoin="round"><circle cx="3.4" cy="3" fill="#f9e79f" r="1" stroke-width=".5"/><path d="m9.8 10.6-2.1-5.1-2.4 3.5-1.6-1.8-2.2 3.4z" fill="none" stroke-width=".75"/><path d="m10.5 22.5c0 .6-.4 1-1 1h-8c-.6 0-1-.4-1-1v-8c0-.6.4-1 1-1h8c.6 0 1 .4 1 1z" fill="#f9ebea"/><path d="m13.5 2.5h10" fill="none"/><path d="m13.5 5.5h10" fill="none"/><path d="m13.5 8.5h10" fill="none"/><path d="m13.5 15.5h10" fill="none"/><path d="m13.5 18.5h10" fill="none"/><path d="m13.5 21.5h10" fill="none"/><path d="m10.5 9.5c0 .6-.4 1-1 1h-8c-.6 0-1-.4-1-1v-8c0-.6.4-1 1-1h8c.6 0 1 .4 1 1z" fill="none"/></g><circle cx="5.5" cy="18.5" fill="#d98880" r="3.2"/><path d="m4.7 19.6c-.1 0-.2 0-.2-.1 0 0 0 0 0-.1v-2.1c0-.1.1-.1.1-.1s0 0 .1 0l2.1 1c.1 0 .1.1.1.2 0 0 0 0-.1.1z" fill="#fff"/></svg>