<svg enable-background="new 0 0 24 24" viewBox="0 0 24 24" xmlns="http://www.w3.org/2000/svg"><g stroke="#000"><path d="m22.5 6.5h-22v-4.9c0-.6.5-1.1 1.1-1.1h19.9c.6 0 1 .4 1 1z" fill="#e5e7e9" stroke-miterlimit="10"/><g fill="none" stroke-linecap="round"><path d="m1.5.5h20c.6 0 1 .4 1 1v20c0 .6-.4 1-1 1h-20c-.6 0-1-.4-1-1v-20c0-.6.4-1 1-1z" stroke-linejoin="round"/><path d="m.5 6.5h22" stroke-linejoin="round"/><path d="m18.4 3.5h1.1" stroke-miterlimit="10"/><path d="m15.2 3.5h1.1" stroke-miterlimit="10"/><path d="m11.9 3.5h1.1" stroke-miterlimit="10"/><path d="m3 3.5h2.8" stroke-miterlimit="10"/></g></g></svg>