<svg enable-background="new 0 0 24 24" viewBox="0 0 24 24" xmlns="http://www.w3.org/2000/svg"><path d="m.5 16.5h22v4.9c0 .6-.5 1.1-1.1 1.1h-19.9c-.6 0-1-.4-1-1z" fill="#eaeaea"/><g fill="none" stroke="#000" stroke-linecap="round"><path d="m21.5 22.5h-20c-.6 0-1-.4-1-1v-20c0-.6.4-1 1-1h20c.6 0 1 .4 1 1v20c0 .6-.4 1-1 1z" stroke-linejoin="round"/><path d="m22.5 16.5h-22" stroke-linejoin="round"/><path d="m3 19.5h2.2"/></g><circle cx="20.4" cy="19.5" r=".5"/><circle cx="18.6" cy="19.5" r=".5"/><circle cx="16.8" cy="19.5" r=".5"/></svg>