<svg enable-background="new 0 0 24 24" viewBox="0 0 24 24" xmlns="http://www.w3.org/2000/svg"><g stroke-linecap="round" stroke-linejoin="round"><g fill="none"><path d="m2.5.5h19c1.1 0 2 .9 2 2v19c0 1.1-.9 2-2 2h-19c-1.1 0-2-.9-2-2v-19c0-1.1.9-2 2-2z" stroke="#000"/><path d="m.5 5.5h23" stroke="#000"/><path d="m4 2.8c.1 0 .2.1.2.2s-.1.2-.2.2-.2-.1-.2-.2.1-.2.2-.2" stroke="#27ae60"/><path d="m7 2.8c.1 0 .2.1.2.2s-.1.2-.2.2-.2-.1-.2-.2.1-.2.2-.2" stroke="#f8c471"/><path d="m10 2.8c.1 0 .2.1.2.2s-.1.2-.2.2-.2-.1-.2-.2.1-.2.2-.2" stroke="#e74c3c"/><path d="m9.5 5.5v18" stroke="#000"/><path d="m3.5 8.5h3" stroke="#000"/><path d="m3.5 10.5h3" stroke="#000"/><path d="m3.5 12.5h3" stroke="#000"/><path d="m3.5 14.5h3" stroke="#000"/><path d="m3.5 16.5h3" stroke="#000"/><path d="m3.5 18.5h3" stroke="#000"/><path d="m3.5 20.5h3" stroke="#000"/></g><path d="m13 8.5h7c.3 0 .5.2.5.5v4c0 .3-.2.5-.5.5h-7c-.3 0-.5-.2-.5-.5v-4c0-.3.2-.5.5-.5z" fill="#d4e6f1" stroke="#1a5276"/><path d="m13 15.9h2c.3 0 .5.2.5.5v1c0 .3-.2.5-.5.5h-2c-.3 0-.5-.2-.5-.5v-1c0-.3.2-.5.5-.5z" fill="#d4e6f1" stroke="#1a5276"/><path d="m18 15.9h2c.3 0 .5.2.5.5v1c0 .3-.2.5-.5.5h-2c-.3 0-.5-.2-.5-.5v-1c0-.3.2-.5.5-.5z" fill="#d4e6f1" stroke="#1a5276"/></g></svg>