<svg enable-background="new 0 0 24 24" viewBox="0 0 24 24" xmlns="http://www.w3.org/2000/svg"><path d="m2.4.8h19c1.1 0 2 .9 2 2v16c0 1.1-.9 2-2 2h-19c-1.1 0-2-.9-2-2v-16c0-1.2.9-2 2-2z" fill="#f2f2f2"/><g stroke-linecap="round" stroke-linejoin="round"><path d="m12 16.3v4.5" fill="none" stroke="#186a3b"/><path d="m2.5.8h19c1.1 0 2 .9 2 2v16c0 1.1-.9 2-2 2h-19c-1.1 0-2-.9-2-2v-16c0-1.2.9-2 2-2z" fill="none" stroke="#000"/><path d="m9 23c.1 0 .2.1.2.2s-.1.3-.2.3-.2-.1-.2-.2.1-.3.2-.3" fill="none" stroke="#000"/><path d="m12 23c.1 0 .2.1.2.2s-.1.2-.2.2-.2-.1-.2-.2.1-.2.2-.2" fill="none" stroke="#000"/><path d="m15 23c.1 0 .2.1.2.2s-.1.2-.2.2-.2-.1-.2-.2.1-.2.2-.2" fill="none" stroke="#000"/><path d="m4.3 8.8-2 2 2 2" fill="none" stroke="#000"/><path d="m19.7 8.8 2 2-2 2" fill="none" stroke="#000"/><path d="m15.8 10.3c-.1-.1-.3-.2-.5-.2.2-.1.3-.1.5-.2 1.4-.8 2.1-2.1 1.6-2.9s-2-.8-3.3-.1c-.1.1-.3.1-.4.2 0-.2 0-.3 0-.5 0-1.6-.8-2.8-1.7-2.8s-1.7 1.3-1.7 2.8v.5c-.1-.1-.3-.1-.4-.2-1.4-.8-2.8-.8-3.3 0s.2 2.1 1.6 2.9c.1.1.3.2.5.2-.2.1-.3.1-.5.2-1.4.8-2.1 2.1-1.6 2.9s2 .8 3.3.1c.1-.1.3-.2.4-.3v.5c0 1.6.8 2.8 1.7 2.8s1.7-1.3 1.7-2.8c0-.2 0-.3 0-.5.1.1.3.2.4.3 1.4.8 2.8.8 3.3-.1s-.2-2-1.6-2.8z" fill="#fadbd8" stroke="#ec7063"/><path d="m12 9.4c.4 0 .7.3.7.7s-.3.7-.7.7-.7-.3-.7-.7.3-.7.7-.7" fill="#f2bd14" stroke="#f2bd14"/></g></svg>