<svg height="16pt" viewBox="0 0 16 16" width="16pt" xmlns="http://www.w3.org/2000/svg"><path d="m1.167969.164062h2.332031c.550781 0 1 .449219 1 1v2.332032c0 .554687-.449219 1-1 1h-2.332031c-.554688 0-1-.445313-1-1v-2.332032c0-.550781.445312-1 1-1zm0 0"/><path d="m1.167969 5.832031h2.332031c.550781 0 1 .445313 1 1v2.332031c0 .554688-.449219 1-1 1h-2.332031c-.554688 0-1-.445312-1-1v-2.332031c0-.554687.445312-1 1-1zm0 0"/><path d="m1.167969 11.496094h2.332031c.550781 0 1 .449218 1 1v2.335937c0 .550781-.449219 1-1 1h-2.332031c-.554688 0-1-.449219-1-1v-2.335937c0-.550782.445312-1 1-1zm0 0"/><path d="m6.832031.164062h2.335938c.550781 0 1 .449219 1 1v2.332032c0 .554687-.449219 1-1 1h-2.335938c-.550781 0-1-.445313-1-1v-2.332032c0-.550781.449219-1 1-1zm0 0"/><path d="m6.832031 5.832031h2.335938c.550781 0 1 .445313 1 1v2.332031c0 .554688-.449219 1-1 1h-2.335938c-.550781 0-1-.445312-1-1v-2.332031c0-.554687.449219-1 1-1zm0 0"/><path d="m6.832031 11.496094h2.335938c.550781 0 1 .449218 1 1v2.335937c0 .550781-.449219 1-1 1h-2.335938c-.550781 0-1-.449219-1-1v-2.335937c0-.550782.449219-1 1-1zm0 0"/><path d="m12.5.164062h2.332031c.554688 0 1 .449219 1 1v2.332032c0 .554687-.445312 1-1 1h-2.332031c-.550781 0-1-.445313-1-1v-2.332032c0-.550781.449219-1 1-1zm0 0"/><path d="m12.5 5.832031h2.332031c.554688 0 1 .445313 1 1v2.332031c0 .554688-.445312 1-1 1h-2.332031c-.550781 0-1-.445312-1-1v-2.332031c0-.554687.449219-1 1-1zm0 0"/><path d="m12.5 11.496094h2.332031c.554688 0 1 .449218 1 1v2.335937c0 .550781-.445312 1-1 1h-2.332031c-.550781 0-1-.449219-1-1v-2.335937c0-.550782.449219-1 1-1zm0 0"/></svg>