<svg viewBox="0 0 24 24" xmlns="http://www.w3.org/2000/svg"><path d="m23.663 6.763a1 1 0 0 0 -.963-1.263h-17.153a.249.249 0 0 1 -.247-.2l-.572-2.72a3.264 3.264 0 0 0 -3.177-2.58 1.25 1.25 0 0 0 0 2.5.752.752 0 0 1 .733.6l3.166 15.069a3.252 3.252 0 0 0 1.237 1.931.249.249 0 0 1 .013.389 2 2 0 1 0 3.1.623.248.248 0 0 1 .011-.243.252.252 0 0 1 .213-.118h5.97a.25.25 0 0 1 .224.361 2 2 0 0 0 1.79 2.888 2 2 0 0 0 1.785-2.9.241.241 0 0 1 .215-.35 1.25 1.25 0 0 0 0-2.5h-11.377a.753.753 0 0 1 -.734-.595l-.179-.855a.25.25 0 0 1 .245-.3h10.754a3 3 0 0 0 2.894-2.211z"/></svg>