<svg height="16pt" viewBox="0 0 16 16" width="16pt" xmlns="http://www.w3.org/2000/svg"><path d="m1.667969.664062h4c.734375 0 1.332031.597657 1.332031 1.332032v4c0 .738281-.597656 1.335937-1.332031 1.335937h-4c-.738281 0-1.335938-.597656-1.335938-1.335937v-4c0-.734375.597657-1.332032 1.335938-1.332032zm0 0"/><path d="m1.667969 8.664062h4c.734375 0 1.332031.597657 1.332031 1.332032v4c0 .738281-.597656 1.335937-1.332031 1.335937h-4c-.738281 0-1.335938-.597656-1.335938-1.335937v-4c0-.734375.597657-1.332032 1.335938-1.332032zm0 0"/><path d="m9.164062 2h6c.277344 0 .5-.222656.5-.5s-.222656-.5-.5-.5h-6c-.277343 0-.5.222656-.5.5s.222657.5.5.5zm0 0"/><path d="m15.167969 3h-6c-.277344 0-.5.222656-.5.5s.222656.5.5.5h6c.273437 0 .5-.222656.5-.5s-.226563-.5-.5-.5zm0 0"/><path d="m15.167969 5h-6c-.277344 0-.5.222656-.5.5s.222656.5.5.5h6c.273437 0 .5-.222656.5-.5s-.226563-.5-.5-.5zm0 0"/><path d="m15.167969 9.667969h-6c-.277344 0-.5.222656-.5.5 0 .273437.222656.5.5.5h6c.273437 0 .5-.226563.5-.5 0-.277344-.226563-.5-.5-.5zm0 0"/><path d="m15.167969 11.667969h-6c-.277344 0-.5.222656-.5.5 0 .273437.222656.5.5.5h6c.273437 0 .5-.226563.5-.5 0-.277344-.226563-.5-.5-.5zm0 0"/><path d="m15.167969 13.667969h-6c-.277344 0-.5.222656-.5.5 0 .273437.222656.5.5.5h6c.273437 0 .5-.226563.5-.5 0-.277344-.226563-.5-.5-.5zm0 0"/></svg>