<svg xmlns="http://www.w3.org/2000/svg" viewBox="0 0 24 24"><title>color-palette-sample-2</title><path d="M22.173,19.367a2.5,2.5,0,0,0,1.733-3.081l-1.347-4.815a2.5,2.5,0,0,0-3.081-1.734l-.753.211.526-.653a2.5,2.5,0,0,0-.377-3.515L14.983,2.642a2.5,2.5,0,0,0-3.516.376L10.445,4.285A.25.25,0,0,1,10,4.128V2.5A2.5,2.5,0,0,0,7.5,0h-5A2.5,2.5,0,0,0,0,2.5V18.807a5.145,5.145,0,0,0,4.51,5.17c.166.015.332.023.5.023C6,24,5.5,24,22.173,19.367ZM13.024,4.273a.5.5,0,0,1,.7-.075l3.892,3.14a.5.5,0,0,1,.075.7l-7.249,8.988A.249.249,0,0,1,10,16.871V8.11a.248.248,0,0,1,.055-.157ZM7,5a.5.5,0,0,1-.5.5h-3A.5.5,0,0,1,3,5V3a.5.5,0,0,1,.5-.5h3A.5.5,0,0,1,7,3ZM3.5,8h3a.5.5,0,0,1,.5.5v2a.5.5,0,0,1-.5.5h-3a.5.5,0,0,1-.5-.5v-2A.5.5,0,0,1,3.5,8Zm0,5.5h3A.5.5,0,0,1,7,14v2a.5.5,0,0,1-.5.5h-3A.5.5,0,0,1,3,16V14A.5.5,0,0,1,3.5,13.5Zm1.5,5A1.5,1.5,0,1,1,3.5,20,1.5,1.5,0,0,1,5,18.5Zm16.981-1.675a.5.5,0,0,1-.347.616L10.823,20.467a.25.25,0,0,1-.262-.4l5.95-7.376a.25.25,0,0,1,.127-.084l3.378-.946a.5.5,0,0,1,.617.347Z"/></svg>