<svg viewBox="0 0 24 24" xmlns="http://www.w3.org/2000/svg"><path d="m23.46 7.855a.5.5 0 0 0 -.415-.779h-1.694a.5.5 0 0 1 -.343-.136l-1.591-1.5a.5.5 0 0 1 0-.728l1.591-1.5a.5.5 0 0 1 .343-.136h1.694a.5.5 0 0 0 .415-.776 5.053 5.053 0 0 0 -.622-.757 5 5 0 0 0 -8.427 4.578.5.5 0 0 1 -.135.459l-9.21 9.21a.5.5 0 0 1 -.382.145 4 4 0 1 0 3.762 3.765.5.5 0 0 1 .146-.381l9.219-9.218a.5.5 0 0 1 .458-.136 4.972 4.972 0 0 0 4.569-1.358 5.045 5.045 0 0 0 .622-.752zm-17.946 13.13a1.5 1.5 0 1 1 0-2.121 1.5 1.5 0 0 1 0 2.121z"/></svg>