<svg viewBox="0 0 24 24" xmlns="http://www.w3.org/2000/svg"><path d="m20.5 22h-1.5v-3.5a7.01 7.01 0 0 0 -4.4-6.5 7.011 7.011 0 0 0 4.4-6.5v-3.5h1.5a1 1 0 0 0 0-2h-17a1 1 0 0 0 0 2h1.5v3.5a7.011 7.011 0 0 0 4.4 6.5 7.01 7.01 0 0 0 -4.4 6.5v3.5h-1.5a1 1 0 0 0 0 2h17a1 1 0 0 0 0-2zm-12.31-15.08a1 1 0 0 1 .89-.544h5.84a1 1 0 0 1 .811 1.584 4.591 4.591 0 0 1 -7.462 0 1 1 0 0 1 -.079-1.04zm-.27 11.71 3.044-2.936a1.544 1.544 0 0 1 2.07 0l3.043 2.935a1.349 1.349 0 0 1 .269 1.6 1.461 1.461 0 0 1 -1.3.771h-6.089a1.46 1.46 0 0 1 -1.3-.764 1.352 1.352 0 0 1 .263-1.606z"/></svg>