<svg viewBox="0 0 24 24" xmlns="http://www.w3.org/2000/svg"><path d="m22.75 2a2 2 0 0 0 -2-2h-17.5a2 2 0 0 0 -2 2v17.475a2.015 2.015 0 0 0 2 2.025h2a1 1 0 0 0 0-2l-1.5-.019a.5.5 0 0 1 -.494-.5v-16.481a.5.5 0 0 1 .5-.5h16.5a.5.5 0 0 1 .5.5v16.5a.5.5 0 0 1 -.5.5h-1a1 1 0 0 0 0 2h1.5a2.015 2.015 0 0 0 2-2.025z"/><path d="m18.25 7a1 1 0 0 0 0-2h-12.177a1 1 0 0 0 0 2z"/><path d="m6.25 11.5h7.5a1 1 0 0 0 0-2h-7.5a1 1 0 0 0 0 2z"/><path d="m12.25 15a4.5 4.5 0 1 0 4.5 4.5 4.505 4.505 0 0 0 -4.5-4.5zm2.232 2.737a.75.75 0 0 1 .15 1.05l-1.932 2.582a1.249 1.249 0 0 1 -.908.5q-.044 0-.087 0a1.246 1.246 0 0 1 -.89-.369l-1-1a.75.75 0 0 1 1.06-1.06l.594.593a.251.251 0 0 0 .377-.027l1.591-2.121a.746.746 0 0 1 1.045-.148z"/></svg>